Coordinates
version=1
nRows=7
nColumns=42
inDegrees=yes

Units are S.I. units (second, meters, Newtons, ...)
If the header above contains a line with 'inDegrees', this indicates whether rotational values are in degrees (yes) or radians (no).

endheader
time	pelvis_tilt	pelvis_list	pelvis_rotation	pelvis_tx	pelvis_ty	pelvis_tz	hip_flexion_r	hip_adduction_r	hip_rotation_r	knee_angle_r	knee_adduction_r	knee_angle_r_beta	ankle_angle_r	subtalar_angle_r	mtp_angle_r	hip_flexion_l	hip_adduction_l	hip_rotation_l	knee_angle_l	knee_adduction_l	knee_angle_l_beta	ankle_angle_l	subtalar_angle_l	mtp_angle_l	lumbar_extension	lumbar_bending	lumbar_rotation	arm_flex_r	arm_add_r	arm_rot_r	elbow_flex_r	pro_sup_r	wrist_flex_r	wrist_dev_r	arm_flex_l	arm_add_l	arm_rot_l	elbow_flex_l	pro_sup_l	wrist_flex_l	wrist_dev_l
      2.16000000	      6.15769446	      0.43474634	      4.17499212	     -0.11237448	      0.89246844	      0.21593159	     20.78573641	     -2.28122945	    -19.52724767	     53.68815017	     -8.61136172	      0.93703499	      2.52488193	    -13.34316635	     -7.50044847	     -6.77512168	      8.31840643	      3.87586797	     12.36862202	     -5.83395570	      0.21587318	     18.92933987	      2.60363044	     -7.50044847	    -21.86832181	      0.90769035	      2.32815178	      1.84102898	    -21.34910111	     19.36626932	     41.07060442	     90.00000001	      0.00000000	      0.00000000	     15.99285435	    -21.08541013	     27.47439560	     45.04940332	     90.00000001	      0.00000000	      0.00000000
      2.17000000	      6.21950274	      0.38895821	      4.62550068	     -0.10092513	      0.89193270	      0.21528851	     21.34338374	     -2.25541593	    -19.64658565	     50.48439542	     -8.10906905	      0.88111892	      2.82667063	    -13.00088955	     -7.50043251	     -8.02508141	      8.07750381	      3.88674377	     11.73099655	     -5.85088290	      0.20474451	     19.56844275	      3.56231061	     -7.50043251	    -22.01068721	      1.07188438	      1.86283699	      1.07645683	    -21.04631866	     19.25940476	     40.88367747	     90.00000001	      0.00000000	      0.00000000	     17.17816131	    -21.50068769	     27.15777400	     46.02261808	     90.00000001	      0.00000000	      0.00000000
      2.18000000	      5.69321424	      0.76030928	      4.88988129	     -0.09006417	      0.88995886	      0.21457140	     22.86371048	     -2.89620455	    -19.63538798	     47.84072265	     -7.61148269	      0.83497813	      3.16917105	    -12.57566584	     -7.50042669	     -8.29705468	      8.49524580	      3.54986136	     11.66753755	     -5.97036294	      0.20363695	     19.80790782	      3.70567380	     -7.50042669	    -21.58019852	      0.70294018	      1.52049203	      0.20657743	    -20.80009601	     19.37164144	     40.77061229	     90.00000001	      0.00000000	      0.00000000	     18.45564466	    -21.76060446	     26.82978072	     46.73584391	     90.00000001	      0.00000000	      0.00000000
      2.19000000	      6.19314025	      0.35063467	      5.47633635	     -0.07826932	      0.88994151	      0.21414862	     22.35870208	     -2.23197884	    -20.41635220	     43.53158986	     -7.51468142	      0.75976957	      3.52084411	    -11.65951286	     -7.50040842	    -10.10727322	      7.66424852	      3.96421202	     10.91390809	     -5.86646352	      0.19048363	     20.83210582	      5.03794387	     -7.50040842	    -22.19172865	      1.32446353	      1.06920313	     -0.39640430	    -20.41799604	     18.94626060	     40.38179707	     90.00000001	      0.00000000	      0.00000000	     19.63180330	    -22.17933075	     26.60055847	     47.76894108	     90.00000001	      0.00000000	      0.00000000
      2.20000000	      6.13563406	      0.35948177	      5.84204826	     -0.06703048	      0.88858614	      0.21378404	     22.77802493	     -2.22789843	    -21.14004690	     39.82038059	     -7.41343831	      0.69499675	      4.07361905	    -10.29176392	     -7.50039192	    -10.94957941	      7.47132963	      3.94972528	     10.79032043	     -5.81762503	      0.18832662	     21.59342390	      5.70738697	     -7.50039192	    -22.25830208	      1.39674126	      0.72354965	     -1.05656880	    -20.04521850	     18.73017802	     40.10959571	     90.00000001	      0.00000000	      0.00000000	     20.86757374	    -22.47903552	     26.36613075	     48.49535237	     90.00000001	      0.00000000	      0.00000000
      2.21000000	      6.07233602	      0.39580791	      6.18607550	     -0.05566193	      0.88698501	      0.21351064	     23.13985168	     -2.30073002	    -22.48227830	     36.08454942	     -7.56170686	      0.62979420	      5.14176091	     -7.29362763	     -7.50035698	    -11.75206304	      7.31125797	      3.79655370	     10.71805726	     -5.83443068	      0.18706539	     22.37529987	      6.72159769	     -7.50035698	    -22.31881854	      1.42487326	      0.45606081	     -1.78066930	    -19.67593541	     18.35338632	     39.91145791	     90.00000001	      0.00000000	      0.00000000	     22.11545892	    -22.74705265	     26.20873619	     49.18738523	     90.00000001	      0.00000000	      0.00000000
      2.22000000	      5.62945551	      0.55487921	      6.36802453	     -0.04480697	      0.88460816	      0.21326872	     23.97563966	     -2.44061665	    -22.80536015	     32.59773038	     -7.25048062	      0.56893772	      5.44511637	     -6.25869652	     -7.50034881	    -11.94807838	      7.50895960	      3.90762941	     11.03712948	     -5.97949307	      0.19263425	     22.99172678	      6.73161136	     -7.50034881	    -22.02069581	      1.27026200	      0.24586047	     -2.39551877	    -19.37333614	     18.32685860	     39.55511094	     90.00000001	      0.00000000	      0.00000000	     23.26662009	    -22.89401470	     25.91335169	     49.78501825	     90.00000001	      0.00000000	      0.00000000
